<?xml version="1.0" encoding="utf-8"?>
<!-- Generator: Adobe Illustrator 25.2.1, SVG Export Plug-In . SVG Version: 6.00 Build 0)  -->
<svg version="1.0" id="Layer_1" xmlns="http://www.w3.org/2000/svg" xmlns:xlink="http://www.w3.org/1999/xlink" x="0px" y="0px"
	 viewBox="0 0 1051.98 1051.98" style="enable-background:new 0 0 1051.98 1051.98;" xml:space="preserve">
<style type="text/css">
	.st0{fill:#1D1D1B;}
</style>
<g>
	<path class="st0" d="M702.5,361.71v169.36c-2.65-0.21-5.25-0.39-7.77-0.53V354.4L702.5,361.71z M677.49,338.19v191.83
		c2.44,0.01,5.04,0.04,7.77,0.12V345.49L677.49,338.19z M664.12,325.61l-3.88,3.65v201.09c2.59-0.12,5.18-0.2,7.77-0.25V329.27
		L664.12,325.61z M642.99,345.49v185.98c2.58-0.23,5.17-0.43,7.77-0.6V338.18L642.99,345.49z M625.74,361.72v171.66
		c2.57-0.35,5.16-0.67,7.77-0.96V354.41L625.74,361.72z M608.5,377.93v158.19c2.56-0.48,5.15-0.93,7.77-1.35V370.62L608.5,377.93z"
		/>
	<path class="st0" d="M580.15,267.73v275.09c-2.67,0.79-5.26,1.61-7.77,2.46V267.73H580.15z M551.68,206.63v250.98l-14.59-13.3
		l-7.77-7.08l-8.79-8.01l-5.8,5.29l-7.76,7.08l-14.59,13.3V203.91l-7.76,7.07v321.79c2.65,1.32,5.25,2.6,7.76,3.82v-77.87
		l14.59-13.3l7.76-7.07l5.8-5.29l8.79,8.01l7.77,7.08l14.59,13.3v90.2c2.58-0.81,5.17-1.62,7.76-2.4V213.71L551.68,206.63z
		 M462.26,267.73v253.39c2.58,1.41,5.18,2.8,7.77,4.17V267.73H462.26z M529.32,186.26l-8.79-8.01l-5.8,5.29l-7.76,7.07v250.98
		l7.76-7.08v-243.3l5.8-5.29l8.79,8.01v243.3l7.77,7.08V193.34L529.32,186.26z M514.73,458.73l-7.76,7.07v77.73
		c4.29,2,8,3.68,10.88,4.97v-92.62L514.73,458.73z M529.32,461.45l-3.12-2.84v93.57l10.19,4.39c0.23-0.08,0.47-0.15,0.7-0.23v-87.81
		L529.32,461.45z"/>
	<path class="st0" d="M435.56,351.85v153.49c-2.38-1.46-4.97-3.04-7.77-4.69V344.54L435.56,351.85z M410.55,328.32V491.2
		c2.7,1.37,5.29,2.74,7.77,4.09V335.63L410.55,328.32z M393.3,312.1v171.13c2.66,1.1,5.25,2.24,7.77,3.4V319.4L393.3,312.1z
		 M376.05,316.77v160.1c2.63,0.84,5.22,1.73,7.77,2.66V309.46L376.05,316.77z M358.8,333v139.25c2.62,0.56,5.21,1.18,7.77,1.86
		V325.69L358.8,333z M341.56,349.22v120.27c2.61,0.27,5.2,0.6,7.77,1V341.91L341.56,349.22z"/>
	<path class="st0" d="M146.03,390.84c0,7.08-4.28,22.22-21.89,26.83c17.61,4.61,21.89,19.75,21.89,26.83
		c0-7.08,4.28-22.22,21.89-26.83C150.31,413.06,146.03,397.92,146.03,390.84z"/>
	<path class="st0" d="M905.95,390.84c0,7.08-4.28,22.22-21.89,26.83c17.61,4.61,21.89,19.75,21.89,26.83
		c0-7.08,4.28-22.22,21.89-26.83C910.23,413.06,905.95,397.92,905.95,390.84z"/>
	<path class="st0" d="M741.79,579.86c-3.48-0.92-7.23-1.77-11.27-2.51c-1.38-0.26-2.8-0.51-4.26-0.74
		c-4.31-0.69-8.91-1.26-13.84-1.68c-0.55-0.05-1.12-0.1-1.69-0.14c-4.63-0.36-9.53-0.6-14.71-0.67c-0.28-0.01-0.55-0.01-0.83-0.01
		c-5.46-0.07-11.23,0.04-17.33,0.36c-0.4,0.02-0.8,0.04-1.2,0.07c-4.9,0.26-10,0.66-15.32,1.21c-0.85,0.09-1.7,0.18-2.56,0.27
		c-4.08,0.45-8.29,0.98-12.62,1.61c-1.5,0.22-3.02,0.44-4.56,0.69c-0.26,0.04-0.53,0.08-0.8,0.12c-2.75,0.43-5.46,0.9-8.14,1.41
		c-2.33,0.44-4.64,0.9-6.92,1.39c-3.2,0.69-6.35,1.42-9.47,2.19c-2.62,0.66-5.21,1.34-7.77,2.05c-3.41,0.95-6.78,1.95-10.11,2.99
		c-2.61,0.82-5.2,1.67-7.77,2.55c-3.17,1.07-6.3,2.19-9.41,3.34c-2.61,0.96-5.2,1.95-7.77,2.96c-3,1.18-5.97,2.39-8.93,3.62
		c-2.6,1.08-5.19,2.18-7.77,3.3c-3.15,1.36-6.29,2.75-9.41,4.16c-2.6,1.17-5.19,2.35-7.77,3.54c-2.9,1.34-5.8,2.68-8.7,4.03
		c-2.59,1.22-5.18,2.44-7.77,3.66c-2.97,1.39-5.95,2.8-8.94,4.19c-2.58,1.22-5.17,2.42-7.77,3.63c-2.73,1.26-5.48,2.52-8.23,3.77
		c-2.58,1.17-5.17,2.33-7.77,3.47c-3.19,1.41-6.4,2.8-9.64,4.16c-2.57,1.09-5.16,2.16-7.77,3.2c-2.91,1.18-5.85,2.33-8.82,3.45
		c-2.57,0.98-5.16,1.93-7.77,2.86c-2.56,0.91-5.15,1.8-7.76,2.67c-2.56,0.84-5.15,1.67-7.77,2.47c-3.02,0.93-6.08,1.82-9.18,2.67
		c-2.56,0.7-5.15,1.38-7.77,2.03c-1.85,0.46-3.71,0.9-5.58,1.33c-2.56,0.59-5.15,1.14-7.77,1.66c-16.72,3.38-34.64,5.53-54.19,5.96
		c6.5,4.22,13.15,8.17,19.93,11.85c12.24-1.6,23.6-3.65,34.26-6.06c2.63-0.6,5.22-1.22,7.77-1.86c1.88-0.47,3.74-0.96,5.58-1.45
		c2.63-0.71,5.22-1.44,7.77-2.2c3.12-0.92,6.18-1.87,9.18-2.85c2.63-0.86,5.22-1.74,7.77-2.65c2.63-0.92,5.21-1.87,7.76-2.84
		c2.63-1,5.22-2.01,7.77-3.05c2.99-1.21,5.93-2.45,8.82-3.71c2.63-1.14,5.21-2.29,7.77-3.46c3.26-1.49,6.47-3,9.64-4.53
		c2.62-1.25,5.2-2.52,7.77-3.79c2.76-1.38,5.5-2.76,8.23-4.15c2.6-1.32,5.19-2.65,7.77-3.98c2.99-1.54,5.96-3.08,8.94-4.61
		c2.58-1.34,5.17-2.67,7.77-4c2.89-1.48,5.78-2.95,8.7-4.41c2.57-1.28,5.16-2.56,7.77-3.83c3.1-1.5,6.24-2.99,9.41-4.46
		c2.56-1.18,5.15-2.35,7.77-3.5c2.93-1.29,5.91-2.55,8.93-3.79c2.55-1.05,5.14-2.08,7.77-3.08c3.08-1.19,6.22-2.34,9.41-3.46
		c2.55-0.89,5.14-1.76,7.77-2.6c3.3-1.07,6.67-2.09,10.11-3.07c2.55-0.73,5.13-1.44,7.77-2.11c3.09-0.81,6.25-1.57,9.47-2.3
		c1.29-0.29,2.58-0.58,3.89-0.86c1.3-0.28,2.6-0.55,3.88-0.81c2.75-0.56,5.44-1.08,8.09-1.56c2.64-0.48,5.23-0.92,7.77-1.33
		c3.22-0.51,6.35-0.97,9.41-1.37c2.55-0.33,5.05-0.62,7.49-0.88c3.57-0.38,7.04-0.69,10.39-0.92c2.09-0.15,4.14-0.26,6.14-0.35
		c4.32-0.21,8.45-0.29,12.39-0.26c2.04,0,4.04,0.04,5.98,0.11c3.32,0.11,6.51,0.29,9.56,0.54c2.54,0.21,4.99,0.46,7.35,0.75
		c2.86,0.35,5.59,0.76,8.18,1.22c2.73,0.48,5.32,1.01,7.77,1.58c2.76,0.64,5.35,1.33,7.76,2.06c2.82,0.84,5.4,1.73,7.77,2.63
		c4.24,1.62,8.39,3.57,11.37,5.17c1.17-1.57,2.31-3.15,3.44-4.74c-4.08-2.04-8.98-4.11-14.81-6.02
		C747.13,581.35,744.55,580.59,741.79,579.86z"/>
	<path class="st0" d="M590.62,706.58c2.6-0.62,5.19-1.29,7.77-2v-96.44c-2.57,0.91-5.16,1.86-7.77,2.84V706.58z"/>
	<path class="st0" d="M573.44,710.22c2.6-0.46,5.19-0.97,7.77-1.51v-94.05c-2.57,1.03-5.16,2.1-7.77,3.19V710.22z"/>
	<path class="st0" d="M556.74,712.78c2.6-0.33,5.19-0.68,7.77-1.07v-90.04c-2.57,1.12-5.16,2.26-7.77,3.42V712.78z"/>
	<path class="st0" d="M539.56,714.4c2.6-0.17,5.19-0.37,7.77-0.61v-84.45c-2.58,1.18-5.16,2.37-7.77,3.57V714.4z"/>
	<path class="st0" d="M523.09,715.06c2.6-0.04,5.18-0.1,7.77-0.21v-77.9c-2.58,1.2-5.17,2.41-7.77,3.63V715.06z"/>
	<path class="st0" d="M506.38,714.8c2.58,0.12,5.17,0.2,7.77,0.23v-70.28c-2.58,1.2-5.16,2.4-7.77,3.61V714.8z"/>
	<path class="st0" d="M490.38,713.72c2.58,0.24,5.17,0.46,7.77,0.63v-62.19c-2.58,1.18-5.17,2.36-7.77,3.54V713.72z"/>
	<path class="st0" d="M472.97,711.56c2.58,0.4,5.17,0.76,7.77,1.09v-52.63c-2.58,1.14-5.17,2.27-7.77,3.4V711.56z"/>
	<path class="st0" d="M456.38,708.52c2.58,0.55,5.17,1.07,7.77,1.54v-42.87c-2.58,1.09-5.17,2.16-7.77,3.23V708.52z"/>
	<path class="st0" d="M440.85,704.79c2.58,0.7,5.17,1.36,7.77,1.98v-33.23c-2.58,1.02-5.17,2.03-7.77,3.02V704.79z"/>
	<path class="st0" d="M741.79,616.28c2.66-2.93,5.25-5.9,7.77-8.91v-6.96c-2.37-0.92-4.95-1.82-7.77-2.67V616.28z"/>
	<path class="st0" d="M726.26,632.22c1.74-1.65,3.45-3.33,5.15-5.03c0.88-0.88,1.75-1.76,2.62-2.65v-28.9
		c-2.45-0.58-5.04-1.12-7.77-1.61V632.22z"/>
	<path class="st0" d="M710.73,646.06c2.62-2.17,5.21-4.4,7.77-6.69v-46.52c-2.49-0.32-5.08-0.6-7.77-0.82V646.06z"/>
	<path class="st0" d="M695.19,658.16c2.62-1.91,5.21-3.85,7.77-5.85v-60.77c-2.51-0.11-5.09-0.17-7.77-0.18V658.16z"/>
	<path class="st0" d="M676.66,670.59c2.62-1.61,5.21-3.27,7.77-4.97v-74.07c-2.52,0.1-5.11,0.24-7.77,0.43V670.59z"/>
	<path class="st0" d="M658.78,680.82c2.61-1.37,5.2-2.79,7.77-4.24v-83.69c-2.54,0.27-5.13,0.58-7.77,0.94V680.82z"/>
	<path class="st0" d="M641.6,689.17c2.61-1.16,5.2-2.36,7.77-3.61v-90.33c-2.54,0.41-5.13,0.87-7.77,1.36V689.17z"/>
	<path class="st0" d="M625.74,599.92v95.79c2.61-0.98,5.2-2,7.77-3.07v-94.45c-1.28,0.27-2.58,0.54-3.88,0.83
		C628.34,599.3,627.04,599.6,625.74,599.92z"/>
	<path class="st0" d="M608.5,701.65c2.6-0.81,5.19-1.65,7.77-2.53V602.4c-2.57,0.74-5.16,1.52-7.77,2.34V701.65z"/>
	<path class="st0" d="M423.9,699.69c2.58,0.87,5.17,1.69,7.77,2.48v-22.18c-2.58,0.93-5.17,1.85-7.77,2.75V699.69z"/>
	<path class="st0" d="M410.55,694.88c2.58,1,5.17,1.96,7.77,2.89v-13.12c-2.58,0.86-5.17,1.7-7.77,2.53V694.88z"/>
	<path class="st0" d="M539.56,574.98c-42.16,14.08-84.42,29.97-129.01,33.92c-27.67,0.54-89.23,7.18-83.04-37.76
		c0.49-3.59,1.6-7.2,3.92-9.99c3.52-4.25,9.79-5.96,14.99-4.11c5.2,1.85,8.96,7.16,9,12.67c2.98-4.07,4.34-9.29,3.73-14.29
		c-0.45-3.68-1.97-7.26-4.49-9.97c-4.13-4.43-10.57-6.15-16.61-5.71c-25.34,1.82-39.95,28.35-30.19,51.04
		c13.1,30.44,54.34,34.71,82.89,33.47c6.63-0.29,13.22-0.94,19.81-1.72c71.59-8.52,130.28-49.53,200.97-60.69l4.75-0.95
		c43.9-10.64,125.93-6.85,155.89,15.76c-0.94,1.47-1.89,2.93-2.87,4.38c-12.29-14.08-101.89-24.83-159-6.01l-1.79,0.47
		c-44.68,11.47-84.76,34.63-127.76,50.65c-43.99,16.68-89.94,22.25-136.71,22.82c-4.45,0.05-9.02,0.05-13.18-1.55
		c-5.62-2.16-9.73-6.98-14.06-10.95c-5.46-5-10.75-10.17-15.85-15.53c-4.88-5.14-9.59-10.45-14.07-15.94
		c-2.24-2.74-4.42-5.52-6.55-8.35c-1.75-2.33-3.83-6.99-6.18-8.6c10.63,7.28,22.24,14.05,33.5,19.19
		c-31.25-36.47,7.6-97.58,52.19-65.74c22.32,16.77,5.9,51.54-21.05,41.73c9.39,15.24,38.84,13.06,54.95,14.32
		c62.18-0.02,119.8-26.39,178.64-43.27c57.3-20.44,165.05-24.67,207.53,9.61c-1.21,2.12-2.45,4.22-3.72,6.3
		c-57.03-38.6-169.24-21.47-235.34,4.36L539.56,574.98z"/>
	<path class="st0" d="M519.24,78.11c-186.07,0-336.91,150.84-336.91,336.91c0,88.18,33.88,168.45,89.33,228.5
		c6.09,6.6,12.44,12.95,19.03,19.02c7.7,7.13,15.74,13.89,24.08,20.26c9.19,7.04,18.73,13.6,28.63,19.66c0,0,0,0,0.01,0
		c51.18,31.38,111.39,49.47,175.83,49.47c81.54,0,156.3-28.96,214.58-77.16c3.44-28.03,25.22-50.48,52.93-54.93
		c43.53-56.76,69.4-127.77,69.4-204.82C856.15,228.95,705.31,78.11,519.24,78.11z M741.44,637.21
		c-59.35,59.36-138.26,92.04-222.2,92.04c-58.06,0-114.76-15.95-163.98-46.12l-1.72-1.06c-8.53-5.3-16.93-11.11-24.98-17.27
		c-7.79-5.96-15.34-12.31-22.46-18.9c-6.13-5.65-12.1-11.61-17.77-17.76c-53.73-58.19-83.32-133.87-83.32-213.12
		c0-83.94,32.69-162.85,92.04-222.2c59.35-59.35,138.26-92.03,222.19-92.03c83.94,0,162.85,32.68,222.2,92.03
		c59.35,59.35,92.03,138.26,92.03,222.2C833.47,498.95,800.79,577.86,741.44,637.21z"/>
	<path class="st0" d="M484.62,569.07l-14.59,5.02c0,0-52.92-45.63-124.58-55.13c-49.78-6.59-77.01,22.57-89,41
		c-2.92-5.27-5.67-10.62-8.25-16.05c10.33-14.36,32.25-33.93,76.08-37.41C394.96,500.9,484.62,569.07,484.62,569.07z"/>
	<path class="st0" d="M519.97,561.84l-17.53,2.09c-32.03-4.75-82.3-56.57-146.08-71.6c-53.2-12.55-102.37,19.51-117.21,30.49
		c-0.26-0.64-0.5-1.29-0.74-1.94c74.17-78.36,163.24-23.45,197.15-2.18C470.05,540.33,519.97,561.84,519.97,561.84z"/>
	<path class="st0" d="M799.94,521.51c-4.52,11.94-9.81,23.58-15.85,34.85c-7.86-6.08-17.2-10.79-27.22-14.42
		c6.38-0.2,12.46-1.6,18.04-3.97C784.84,535.1,793.52,529.28,799.94,521.51z"/>
	<path class="st0" d="M484.62,569.07l-14.59,5.02c0,0-52.92-45.63-124.58-55.13c-49.78-6.59-77.01,22.57-89,41
		c-2.92-5.27-5.67-10.62-8.25-16.05c10.33-14.36,32.25-33.93,76.08-37.41C394.96,500.9,484.62,569.07,484.62,569.07z"/>
	<path class="st0" d="M238.41,520.88c74.17-78.36,163.24-23.45,197.15-2.18c34.49,21.63,84.41,43.14,84.41,43.14l-17.53,2.09
		c-32.03-4.75-82.3-56.57-146.08-71.6c-53.2-12.55-102.37,19.51-117.21,30.49"/>
	<path class="st0" d="M684.66,214.1c0,16.87-13.68,30.54-30.55,30.54c-16.87,0-30.54-13.67-30.54-30.54s13.67-30.54,30.54-30.54
		C670.98,183.56,684.66,197.23,684.66,214.1z"/>
	<path class="st0" d="M731.41,202.85c-56.67-56.68-132.02-87.89-212.17-87.89c-80.15,0-155.5,31.21-212.17,87.89
		c-56.68,56.67-87.89,132.02-87.89,212.17c0,32.27,5.14,63.94,15.02,93.94c30.18-29.93,62.48-40.17,92.71-40.22V336.6l17.39-15.32
		l45.29-39.89l51.96,45.76v-76.46l23.04-21.28v-28.09l31.29-28.91l24.09-22.25l24.09,22.25l31.29,28.91v28.09l23.04,21.28v112.13
		l64.28-56.61l43.52,38.33l12.31,10.84v97.74l66.24-82.5l-0.81,11.96l-45.89,57.16c5.94-2.5,12.46-3.88,19.32-3.88
		c11.53,0,22.15,3.91,30.61,10.49c12.87,8.18,21.81,21.99,23.33,37.96c5.29-22.45,8-45.66,8-69.29
		C819.3,334.87,788.09,259.52,731.41,202.85z M229.75,380.02h37.49c-1.71,1.5-3.23,3.28-4.53,5.28h-33.54
		C229.34,383.54,229.54,381.77,229.75,380.02z M281,377.4c11.3,0,20.46,11.33,20.46,25.29c0,13.97-9.16,25.29-20.46,25.29
		c-11.3,0-20.46-11.32-20.46-25.29C260.54,388.73,269.7,377.4,281,377.4z M228.26,396.43h30.02c-0.32,1.7-0.51,3.47-0.56,5.28
		h-29.74C228.06,399.94,228.15,398.18,228.26,396.43z M227.68,415.02c0-0.73,0-1.45,0.01-2.18h31.58c0.59,1.86,1.35,3.63,2.25,5.27
		H227.7C227.69,417.08,227.68,416.05,227.68,415.02z M251.31,483.75h-15.45c-0.43-1.75-0.84-3.52-1.23-5.28h25.02
		C256.84,480.12,254.06,481.88,251.31,483.75z M283.85,467.34h-51.47c-0.32-1.76-0.62-3.52-0.91-5.28h73.26
		C297.61,463.24,290.65,465,283.85,467.34z M318.41,450.93h-88.53c-0.21-1.75-0.42-3.51-0.6-5.27h89.13V450.93z M318.41,434.52
		h-90.08c-0.12-1.75-0.22-3.51-0.31-5.27h90.39V434.52z M318.41,418.11h-17.93c0.9-1.64,1.66-3.41,2.25-5.27h15.68V418.11z
		 M318.41,401.71h-14.13c-0.05-1.81-0.24-3.58-0.56-5.28h14.69V401.71z M318.41,385.3h-19.12c-1.3-2-2.82-3.78-4.53-5.28h23.65
		V385.3z M318.41,368.89h-87.12c0.27-1.76,0.57-3.52,0.88-5.27h86.24V368.89z M318.41,352.48h-84.04c0.38-1.77,0.78-3.52,1.19-5.27
		h82.85V352.48z M318.41,332.76v3.32h-79.97c0.49-1.77,1-3.53,1.53-5.28h80.67L318.41,332.76z M333.27,319.67h-89.72
		c0.61-1.77,1.24-3.53,1.89-5.28h93.82L333.27,319.67z M351.9,303.26H249.78c0.73-1.77,1.48-3.52,2.25-5.27h105.85L351.9,303.26z
		 M370.53,286.85H257.2c0.86-1.77,1.75-3.52,2.66-5.27h116.65L370.53,286.85z M433.05,303.26h-5.76l-5.98-5.27h11.74V303.26z
		 M433.05,286.85h-24.39l-5.99-5.27h30.38V286.85z M433.05,270.44H265.92c1-1.77,2.03-3.53,3.08-5.27h164.05V270.44z M433.05,254.04
		h-157c1.17-1.77,2.37-3.53,3.59-5.28h153.41V254.04z M443.16,237.63H287.8c1.36-1.78,2.75-3.54,4.16-5.28h156.92L443.16,237.63z
		 M456.09,221.22H301.41c1.57-1.77,3.18-3.53,4.81-5.27h149.87V221.22z M456.09,204.81H317.21c1.86-1.79,3.73-3.55,5.63-5.27h133.25
		V204.81z M466.03,188.41H335.75c2.21-1.8,4.44-3.56,6.69-5.28h129.31L466.03,188.41z M483.79,172H358
		c2.71-1.81,5.45-3.57,8.22-5.28H489.5L483.79,172z M501.55,155.59H385.88c3.55-1.84,7.14-3.59,10.77-5.27h110.61L501.55,155.59z
		 M517.02,139.18h-92.7c5.63-1.93,11.32-3.69,17.06-5.27h75.64V139.18z M762.98,261.29l-5.91,6.44h-77.01l2.63-6.44H762.98z
		 M592.32,183.79c0-4.73-4.45-14.86-22.75-17.95c18.3-3.08,22.75-13.21,22.75-17.95c0,4.74,4.44,14.87,22.74,17.95
		C596.76,168.93,592.32,179.06,592.32,183.79z M654.11,253.15c-21.53,0-39.05-17.52-39.05-39.05s17.52-39.05,39.05-39.05
		c21.53,0,39.05,17.52,39.05,39.05S675.64,253.15,654.11,253.15z M762.98,370.87c-7.87,0-14.25-6.37-14.25-14.24
		c0-7.86,6.38-14.24,14.25-14.24c7.86,0,14.24,6.38,14.24,14.24C777.22,364.5,770.84,370.87,762.98,370.87z M778.13,292.37
		c-21.35-2.59-41.15,10.63-40.15,21.29c-2.41-22.29-34.98-22.22-57.92-21.29l3.36-6.43h44.56c7.7-4.99,10-11.24,10-14.86
		c0,3.62,2.3,9.87,10,14.86h37.68L778.13,292.37z M787.62,421.41c0-3.01-2.82-9.44-14.44-11.4c11.62-1.96,14.44-8.39,14.44-11.4
		c0,3.01,2.83,9.44,14.45,11.4C790.45,411.97,787.62,418.4,787.62,421.41z"/>
	<path class="st0" d="M755.22,440.83c-6,0-11.76,1.05-17.1,2.98c-7.96,3.98-14.73,9.99-19.62,17.36v55.93
		c9.14,11.34,23.15,18.59,38.86,18.59c21.41,0,41.95-15.06,47.25-36.03c5.64-22.34-9.03-45.98-29.51-54.76
		C768.83,442.21,762.04,440.83,755.22,440.83z M754.21,463.55c-3.24,0.28-6.45,1.34-9.02,3.29c-0.11,0.09-0.23,0.17-0.34,0.26
		c-3.02,2.41-5.15,5.86-5.92,9.64c-0.23,1.11-0.34,2.23-0.34,3.36c0,9.19,7.45,16.64,16.64,16.64c8.78,0,15.98-6.8,16.59-15.43
		c0.03,0.49,0.05,0.98,0.05,1.47c0,13.09-10.62,23.71-23.72,23.71c-9.32,0-17.38-5.38-21.25-13.2c-1.58-3.17-2.46-6.74-2.46-10.51
		c0-1.6,0.15-3.15,0.47-4.65c-0.11,0.26-0.21,0.52-0.31,0.78c0.14-0.48,0.29-0.94,0.44-1.41c1.44-4.37,3.72-8.37,6.66-11.79
		c6.44-7.55,16.03-12.35,26.72-12.35c19.38,0,35.14,15.77,35.14,35.15c0,19.38-15.76,35.14-35.14,35.14
		c-13.85,0-25.86-8.05-31.59-19.73c4.99,8.14,13.96,13.58,24.21,13.58c15.65,0,28.34-12.7,28.34-28.35c0-7.95-3.57-15.37-9.79-20.33
		c-3.37-2.68-7.38-4.85-11.76-5.27C756.63,463.45,755.42,463.44,754.21,463.55z"/>
	<circle class="st0" cx="796.86" cy="682.57" r="40.99"/>
	<circle class="st0" cx="796.86" cy="682.57" r="32.49"/>
	<circle class="st0" cx="732.28" cy="723.56" r="10.49"/>
	<circle class="st0" cx="835.14" cy="614.66" r="16.92"/>
	<path class="st0" d="M279.32,392.23c-3.62,0.02-7.29,0.11-11.01,0.26c2.4-4.98,6.52-8.45,11.29-9.01
		C279.47,386.36,279.38,389.28,279.32,392.23z"/>
	<path class="st0" d="M279.26,408.05c-4.12,0.03-8.3,0.14-12.55,0.33c-0.43-1.8-0.66-3.71-0.66-5.69c0-2.29,0.31-4.5,0.88-6.54
		c4.15,0.15,8.26,0.24,12.32,0.26C279.21,400.24,279.21,404.12,279.26,408.05z"/>
	<path class="st0" d="M279.62,421.9c-5.05-0.59-9.38-4.43-11.72-9.89c3.84,0.13,7.66,0.2,11.43,0.22
		C279.4,415.42,279.49,418.64,279.62,421.9z"/>
	<path class="st0" d="M283.36,392.22c-0.05-2.9-0.12-5.78-0.22-8.63c4.44,0.82,8.25,4.15,10.53,8.85
		C290.29,392.3,286.85,392.23,283.36,392.22z"/>
	<path class="st0" d="M283.35,412.23c3.62-0.01,7.19-0.07,10.73-0.19c-2.22,5.17-6.23,8.89-10.95,9.75
		C283.23,418.58,283.31,415.39,283.35,412.23z"/>
	<path class="st0" d="M295.96,402.69c0,1.96-0.23,3.85-0.65,5.63c-3.89-0.18-7.86-0.27-11.9-0.28c0.04-3.91,0.04-7.78,0.01-11.62
		c3.93-0.01,7.83-0.08,11.67-0.22C295.65,398.23,295.96,400.41,295.96,402.69z"/>
	<path class="st0" d="M246.97,896.79l-0.22,8.65l0,16.55h-74.46l5.52-9.46V807.79l-5.84-8.87h32.85l-6.13,8.58v94.41h38.63
		L246.97,896.79z M339.38,798.92h-22.22l5.95,8.42c0.1,33.29-0.01,56.76-0.32,69.77c-0.31,11.81-4.19,19.62-11.87,23.86
		c-2.88,1.54-5.36,2.6-7.37,3.16c-1.25,0.34-2.76,0.52-4.49,0.52c-0.97,0-2.03-0.05-3.14-0.16c-3.13-0.3-6.63-1.34-10.39-3.06
		c-5.23-2.47-9.01-7.59-11.21-15.2c-0.89-3.41-1.07-5.08-1.07-5.88l-0.32-72.86l5.93-9l-2.79,0.13c-2.18,0.1-5.48,0.16-9.82,0.16
		l-13.75-0.16h-5.89l5.43,8.84c0,9.9-0.06,20.96-0.16,32.88c-0.11,11.87-0.16,19.34-0.16,22.21v11.1c0,1.12,0.03,2.4,0.08,3.8
		c0.05,1.41,0.08,2.27,0.08,2.58v0.09l0.01,0.09c0.7,5.63,0.78,6.67,0.79,6.85v0.1l0.01,0.1c0.44,3.09,1.23,5.95,2.33,8.5
		c2.72,6.44,6.76,12.14,11.99,16.93c4.95,4.62,11.28,7.9,18.83,9.76c4.49,1.12,8.86,1.69,13,1.69c2.69,0,5.34-0.24,7.87-0.71
		c6.79-1.21,12.25-3.28,16.22-6.15c4.55-3.25,8.56-6.93,11.9-10.92c5.41-6.19,8.32-14.76,8.65-25.5
		c0.32-19.65,0.42-44.39,0.32-73.53l5.74-8.61L339.38,798.92z M420.54,857.51l29.36-48.99l8.73-9.77h-25.2
		c-4.13,0-7.22-0.05-9.19-0.16l-2.69-0.14l5.28,8.6l-18.44,31.02l-17.54-30.84l5.2-8.47h-37.68l9.26,9.47l28.55,49.58l-32.68,54.21
		l-10.45,9.82l17.29,0l9.44,0.16h11.88l-4.97-8.6l21.19-36.31l20.87,35.96l-5.52,8.94H436l9.89-0.16h15.13l-8.71-9.14L420.54,857.51
		z M568.99,798.76h-12.13c-3.81,0-6.63-0.05-8.38-0.16l-2.88-0.17l6.31,9.26l-29.36,72.34l-28.61-72.35l5.82-8.92h-35.9l7.46,9.33
		l51.04,125.31l52.01-125.13l8.36-9.82l-3.26,0.15C577.15,798.71,573.73,798.76,568.99,798.76z M624.54,807.53l6.77-8.61h-33.49
		l5.85,8.87v104.74l-5.52,9.46h33.36l-6.96-9.54V807.53z M712.35,901.91h-38.63V807.5l6.13-8.58H647l5.85,8.87v104.74l-5.52,9.46
		h74.46l0-16.55l0.22-8.65L712.35,901.91z M804.32,901.91h-38.63V807.5l6.13-8.58h-32.85l5.85,8.87v104.74l-5.52,9.46h74.46l0-16.55
		l0.22-8.65L804.32,901.91z M905.95,896.79l-9.66,5.12h-38.63v-37.08h26.16l9.77,5.47l0-19.45L894,839.9l-9.22,5.01h-27.12v-26.07
		h38.45l9.77,5.47v-2.42c0-0.86-0.03-2.05-0.08-3.56c-0.05-1.47-0.08-2.57-0.08-3.3v-16.11h-74.79l5.85,8.87v104.74l-5.52,9.46
		h74.46l0-16.55L905.95,896.79z"/>
	<g>
		<path class="st0" d="M275.31,973.29v-20.63h8.29c1.8,0,3.34,0.63,4.62,1.9c1.28,1.27,1.92,2.81,1.92,4.63
			c0,1.19-0.31,2.28-0.94,3.27c-0.63,0.99-1.46,1.71-2.49,2.18l6.07,8.65h-4.89l-5.45-7.8h-3.05v7.8H275.31z M279.38,961.8h4.02
			c0.74,0,1.37-0.25,1.88-0.76c0.51-0.51,0.76-1.12,0.76-1.85c0-0.74-0.25-1.37-0.76-1.88c-0.51-0.51-1.13-0.76-1.88-0.76h-4.02
			V961.8z"/>
		<path class="st0" d="M303.91,973.29v-20.63h13.63v3.87h-9.52v4.57h8.7v3.14h-8.7v5.19h9.52v3.87H303.91z"/>
		<path class="st0" d="M327,973.29l9.85-21.13h0.56l9.85,21.13h-4.51l-1.23-2.9h-8.73l-1.23,2.9H327z M334.21,966.9h5.83l-2.9-6.59
			L334.21,966.9z"/>
		<path class="st0" d="M357.98,973.29v-20.63h4.1v16.76h8.47v3.87H357.98z"/>
		<path class="st0" d="M396.61,973.29v-20.63h13.63v3.87h-9.52v4.57h8.7v3.14h-8.7v5.19h9.52v3.87H396.61z"/>
		<path class="st0" d="M429.32,973.58c-1.66,0-3.24-0.36-4.75-1.07c-1.5-0.71-2.65-1.72-3.43-3.03l2.7-2.49
			c0.53,0.82,1.34,1.52,2.45,2.1c1.1,0.58,2.16,0.86,3.18,0.86c1.04,0,1.93-0.2,2.68-0.6c0.75-0.4,1.13-0.97,1.13-1.71
			c0-0.55-0.25-1-0.75-1.35c-0.5-0.35-1.2-0.66-2.1-0.94l-4.28-1.32c-1.33-0.43-2.41-1.1-3.24-2.02c-0.83-0.92-1.25-2.05-1.25-3.4
			c0-1.84,0.78-3.33,2.34-4.47c1.56-1.14,3.34-1.71,5.33-1.71c3.38,0,5.88,1.08,7.5,3.25l-2.93,2.4c-0.49-0.65-1.15-1.15-1.98-1.51
			c-0.83-0.36-1.69-0.54-2.56-0.54c-0.8,0-1.57,0.21-2.3,0.62c-0.73,0.41-1.1,1-1.1,1.76c0,0.96,0.79,1.67,2.37,2.14l4.51,1.38
			c1.48,0.47,2.65,1.14,3.49,2.02c0.84,0.88,1.26,1.94,1.26,3.19c0,1.82-0.8,3.35-2.39,4.59
			C433.63,972.96,431.66,973.58,429.32,973.58z"/>
		<path class="st0" d="M453.56,973.29v-16.76h-5.57v-3.87h15.21v3.87h-5.54v16.76H453.56z"/>
		<path class="st0" d="M468.88,973.29l9.85-21.13h0.56l9.85,21.13h-4.51l-1.23-2.9h-8.73l-1.23,2.9H468.88z M476.09,966.9h5.83
			l-2.9-6.59L476.09,966.9z"/>
		<path class="st0" d="M500.3,973.29v-16.76h-5.57v-3.87h15.21v3.87h-5.54v16.76H500.3z"/>
		<path class="st0" d="M521.14,973.29v-20.63h13.63v3.87h-9.52v4.57h8.7v3.14h-8.7v5.19h9.52v3.87H521.14z"/>
		<path class="st0" d="M560.47,973.29l3.4-21.13h0.56l8.38,14.07l8.38-14.07h0.56l3.37,21.13h-4.28l-1.64-10.38l-6.1,10.38h-0.59
			l-6.12-10.38l-1.64,10.38H560.47z"/>
		<path class="st0" d="M594.88,973.29l9.85-21.13h0.56l9.85,21.13h-4.51l-1.23-2.9h-8.73l-1.23,2.9H594.88z M602.09,966.9h5.83
			l-2.9-6.59L602.09,966.9z"/>
		<path class="st0" d="M625.86,973.29v-20.63h8.29c1.8,0,3.34,0.63,4.62,1.9c1.28,1.27,1.92,2.81,1.92,4.63
			c0,1.19-0.31,2.28-0.94,3.27c-0.63,0.99-1.46,1.71-2.49,2.18l6.07,8.65h-4.89l-5.45-7.8h-3.05v7.8H625.86z M629.93,961.8h4.02
			c0.74,0,1.37-0.25,1.88-0.76s0.76-1.12,0.76-1.85c0-0.74-0.25-1.37-0.76-1.88c-0.51-0.51-1.13-0.76-1.88-0.76h-4.02V961.8z"/>
		<path class="st0" d="M654.46,973.29v-20.63h4.07v9.29l7.94-9.32h4.69l-7.44,8.85l8.26,11.78h-4.89l-6.01-8.59l-2.55,2.96v5.66
			H654.46z"/>
		<path class="st0" d="M682.92,973.29v-20.63h13.63v3.87h-9.52v4.57h8.7v3.14h-8.7v5.19h9.52v3.87H682.92z"/>
		<path class="st0" d="M714.01,973.29v-16.76h-5.57v-3.87h15.21v3.87h-5.54v16.76H714.01z"/>
		<path class="st0" d="M734.85,973.29v-20.63h4.07v20.63H734.85z"/>
		<path class="st0" d="M770.28,973.87l-12.92-12.78v12.19h-3.96v-21.1h0.35l12.92,12.95v-12.48h3.99v21.22H770.28z"/>
		<path class="st0" d="M793.11,973.61c-2.93,0-5.43-1.04-7.5-3.12s-3.11-4.59-3.11-7.52s1.04-5.43,3.11-7.5s4.57-3.11,7.5-3.11
			c1.89,0,3.66,0.47,5.3,1.42c1.64,0.95,2.94,2.24,3.9,3.88l-3.69,2.02c-0.59-1-1.36-1.8-2.32-2.4c-0.96-0.61-2.02-0.91-3.19-0.91
			c-1.78,0-3.28,0.64-4.5,1.92s-1.83,2.84-1.83,4.67c0,1.88,0.61,3.46,1.83,4.76c1.22,1.3,2.72,1.95,4.5,1.95
			c1.54,0,2.88-0.45,4.01-1.35c1.13-0.9,1.82-2.05,2.05-3.46h-6.07v-2.93h10.43v1.08c-0.02,2.93-1.04,5.43-3.05,7.49
			C798.48,972.58,796.02,973.61,793.11,973.61z"/>
	</g>
	<rect x="171.97" y="958.51" class="st0" width="90.23" height="5.98"/>
	<rect x="815.72" y="958.51" class="st0" width="90.23" height="5.98"/>
</g>
</svg>
