<svg xmlns="http://www.w3.org/2000/svg" width="24" height="22" fill="none" viewBox="0 0 24 22">
  <path fill="#fff" d="M9.101.5a4.59 4.59 0 0 0-2.57.788A4.662 4.662 0 0 0 4.83 3.387a4.719 4.719 0 0 0-.26 2.7c.179.907.62 1.74 1.268 2.393a4.607 4.607 0 0 0 2.37 1.276 4.577 4.577 0 0 0 2.671-.271 4.634 4.634 0 0 0 2.072-1.726 4.71 4.71 0 0 0 .774-2.6c0-.612-.12-1.219-.353-1.785A4.664 4.664 0 0 0 12.37 1.86a4.608 4.608 0 0 0-1.5-1.01A4.568 4.568 0 0 0 9.101.5Zm8.083 9.295a.31.31 0 0 0-.3.255l-.215 1.537a5.53 5.53 0 0 0-.982.545l-1.437-.582a.355.355 0 0 0-.359.158l-1.197 2.009a.294.294 0 0 0 .071.375l1.198.956a4.9 4.9 0 0 0 0 1.21l-1.197.957a.279.279 0 0 0-.072.363l1.197 2.021c.072.158.228.158.36.158l1.436-.593c.304.225.634.412.982.556l.216 1.538a.291.291 0 0 0 .3.242h2.31a.286.286 0 0 0 .276-.242l.215-1.538c.34-.154.665-.34.97-.556l1.425.593c.144 0 .3 0 .384-.158l1.197-2.021a.281.281 0 0 0-.072-.363l-1.197-.956a4.889 4.889 0 0 0 0-.593 3.259 3.259 0 0 0 0-.581l1.197-.957a.303.303 0 0 0 .072-.375l-1.197-2.009c-.072-.157-.228-.157-.372-.157l-1.437.63a4.858 4.858 0 0 0-.982-.546l-.215-1.537a.28.28 0 0 0-.084-.177.274.274 0 0 0-.18-.077h-2.179m-8.083 2.336C4.13 12.216 0 14.274 0 16.852v2.324h11.173a8.12 8.12 0 0 1 0-6.887 16.07 16.07 0 0 0-1.94-.073Zm9.1 1.731a1.718 1.718 0 0 1 1.32.458 1.754 1.754 0 0 1 .561 1.29 1.771 1.771 0 0 1-.56 1.292 1.732 1.732 0 0 1-1.32.458 1.73 1.73 0 0 1-1.134-.56 1.765 1.765 0 0 1 0-2.377 1.73 1.73 0 0 1 1.134-.561Z"/>
</svg>
