<svg xmlns="http://www.w3.org/2000/svg" width="24" height="24" fill="none" viewBox="0 0 24 24">
  <path fill="#fff" d="M0 19.512c0 1.248.44 2.304 1.32 3.168.88.864 1.944 1.304 3.192 1.32h15c1.232 0 2.288-.44 3.168-1.32.88-.88 1.32-1.936 1.32-3.168v-15c0-.976-.28-1.848-.84-2.616A4.397 4.397 0 0 0 21 .288v1.968c0 .624-.216 1.16-.648 1.608-.432.448-.968.664-1.608.648-.64-.016-1.168-.232-1.584-.648-.416-.416-.632-.952-.648-1.608V0h-9v2.256c0 .624-.224 1.16-.672 1.608-.448.448-.976.664-1.584.648a2.438 2.438 0 0 1-1.608-.648c-.464-.416-.68-.952-.648-1.608V.288c-.88.32-1.6.856-2.16 1.608C.28 2.648 0 3.52 0 4.512v15Zm3 0v-12h18v12c0 .416-.144.768-.432 1.056-.288.288-.64.432-1.056.432h-15c-.416 0-.776-.144-1.08-.432A1.324 1.324 0 0 1 3 19.512ZM4.512 2.256c0 .208.072.384.216.528.144.144.32.216.528.216a.718.718 0 0 0 .528-.216A.718.718 0 0 0 6 2.256V0H4.512v2.256ZM6 18h3v-3H6v3Zm0-4.488h3v-3H6v3ZM10.512 18h3v-3h-3v3Zm0-4.488h3v-3h-3v3ZM15 18h3v-3h-3v3Zm0-4.488h3v-3h-3v3Zm3-11.256c0 .208.072.384.216.528.144.144.32.216.528.216a.718.718 0 0 0 .528-.216.81.81 0 0 0 .24-.528V0H18v2.256Z"/>
</svg>
