<svg xmlns="http://www.w3.org/2000/svg" width="24" height="24" fill="none" viewBox="0 0 24 24">
  <path fill="#fff" d="M15.88 24a.883.883 0 0 0 .884-.881.883.883 0 0 0-.885-.882.883.883 0 0 0-.884.882c0 .486.396.881.884.881Zm4.341 0a.883.883 0 0 0 .884-.881.883.883 0 0 0-.884-.882.883.883 0 0 0-.884.882c0 .486.396.881.884.881ZM7.276 9.656a6.201 6.201 0 0 1-.964-3.325c0-2.084.884-3.847 2.291-4.889C8.08.561 7.196 0 5.95 0 3.9 0 2.774 1.643 2.774 3.526c0 1.042.362 1.883 1.045 2.524.402.36.724.801.724 1.322 0 .481-.161.922-1.327 1.403C1.568 9.535.04 10.457 0 12.02c0 1.042.683 1.763 1.648 1.763h1.528c.241 0 .482-.16.603-.36.764-1.323 2.13-2.204 3.296-2.765.282-.2.443-.681.201-1.002Zm8.483 9.336h5.346c.161 0 .322-.12.322-.28l.965-3.447c.08-.24-.12-.44-.322-.44h-8.24l-.121-.521a.555.555 0 0 0-.523-.4h-.884c-.282 0-.563.24-.563.52-.04.32.24.561.522.561h.523l.482 1.603 1.206 4.127c.08.24.282.4.523.4h6.271c.282 0 .563-.24.563-.52.04-.321-.241-.562-.523-.562H15.76a.572.572 0 0 1-.523-.36v-.04a.52.52 0 0 1 .523-.641Z"/>
  <path fill="#fff" d="m11.739 17.068-.161-.6a1.94 1.94 0 0 1-.884-.602c-.362-.44-.563-.961-.523-1.522.04-1.122 1.045-2.003 2.17-2.003h.845c.723 0 1.367.36 1.769.921h2.291c-.643-.44-1.407-.801-2.17-1.122-1.287-.52-1.448-1.042-1.448-1.562 0-.521.362-1.042.764-1.443.764-.68 1.166-1.643 1.166-2.804 0-2.084-1.287-3.887-3.538-3.887S8.482 4.247 8.482 6.331c0 1.121.443 2.083 1.166 2.804.443.4.764.922.764 1.443 0 .52-.2 1.041-1.447 1.562-1.93.761-3.699 1.683-3.739 3.406 0 1.122.804 2.123 1.89 2.123h4.743l-.12-.6Z"/>
  <path fill="#fff" d="M17.648 6.33c0 1.243-.321 2.364-.965 3.326-.24.36-.12.801.282 1.042 1.125.52 2.412 1.322 3.176 2.564h1.93c.401 0 .763.12 1.085.36.522-.28.844-.84.844-1.562-.04-1.563-1.568-2.524-3.216-3.285-1.166-.481-1.327-.962-1.327-1.403 0-.48.322-.961.724-1.322.683-.641 1.045-1.482 1.045-2.524C21.226 1.603 20.101 0 18.05 0c-1.246 0-2.13.56-2.653 1.442 1.367 1.042 2.251 2.765 2.251 4.889Z"/>
</svg>
