<svg xmlns="http://www.w3.org/2000/svg" width="24" height="24" fill="none" viewBox="0 0 24 24">
  <path fill="#fff" d="M12 11.613a1.161 1.161 0 0 0 0-2.323v2.323ZM1.161 9.29a1.161 1.161 0 0 0 0 2.323V9.29ZM12 9.29a1.161 1.161 0 0 0 0 2.323V9.29Zm10.839 2.323a1.161 1.161 0 1 0 0-2.323v2.323Zm-12-1.161a1.161 1.161 0 0 0 2.322 0H10.84Zm2.322-9.29a1.161 1.161 0 0 0-2.322 0h2.322Zm-10.838 9.29a1.161 1.161 0 0 0-2.323 0h2.323Zm21.677 0a1.161 1.161 0 0 0-2.323 0H24Zm-24 0a1.161 1.161 0 1 0 2.323 0H0Zm12-8.13A1.161 1.161 0 0 0 12 0v2.323Zm9.677 8.13a1.161 1.161 0 0 0 2.323 0h-2.323ZM12 0a1.161 1.161 0 0 0 0 2.323V0Zm0 9.29H1.161v2.323H12V9.29Zm0 2.323h10.839V9.29H12v2.323Zm1.161-1.161v-9.29H10.84v9.29h2.322ZM0 10.452v6.193h2.323v-6.193H0Zm0 6.193A7.355 7.355 0 0 0 7.355 24v-2.323a5.032 5.032 0 0 1-5.032-5.032H0ZM7.355 24h9.29v-2.323h-9.29V24Zm9.29 0A7.355 7.355 0 0 0 24 16.645h-2.323a5.032 5.032 0 0 1-5.032 5.032V24ZM24 16.645v-6.193h-2.323v6.193H24ZM2.323 10.452V7.355H0v3.097h2.323Zm0-3.097a5.032 5.032 0 0 1 5.032-5.032V0A7.355 7.355 0 0 0 0 7.355h2.323Zm5.032-5.032H12V0H7.355v2.323ZM24 10.452V7.355h-2.323v3.097H24Zm0-3.097A7.355 7.355 0 0 0 16.645 0v2.323a5.032 5.032 0 0 1 5.032 5.032H24ZM16.645 0H12v2.323h4.645V0Z"/>
</svg>
