<svg xmlns="http://www.w3.org/2000/svg" width="24" height="18" fill="none" viewBox="0 0 24 18">
  <g class="Vector">
    <path fill="#fff" d="M0 10.047a.78.78 0 0 0 .522.732l1.427.513c.107-.251.265-.486.473-.69.417-.408.97-.633 1.56-.633a2.22 2.22 0 0 1 1.559.632l4.368 4.277a2.13 2.13 0 0 1 .526 2.23 2.16 2.16 0 0 0 2.206.179l6.008-2.957a2.062 2.062 0 0 0 1.055-2.531h-.008c-.8 0-1.553-.345-2.067-.944l-4.136-4.828-.584.572c-.41.4-.954.621-1.533.621S10.253 7 9.843 6.6l-.199-.195a2.086 2.086 0 0 1 0-3.001l1.658-1.624-.346-.404A2.153 2.153 0 0 0 8.364.849L3.855 3.087 1.093 1.999C.57 1.793 0 2.169 0 2.722v7.325Z"/>
    <path fill="#fff" d="M24 9.73V3.734c0-.43-.356-.78-.796-.78H19.68L16.055.394A2.147 2.147 0 0 0 14.814 0c-.547 0-1.09.206-1.502.609L10.052 3.8a1.535 1.535 0 0 0 0 2.204l.199.195c.31.304.718.456 1.125.456.407 0 .815-.152 1.125-.456l1.029-1.007 4.54 5.3a2.133 2.133 0 0 0 1.626.742c.151 0 .304-.016.456-.049l3.223-.695A.783.783 0 0 0 24 9.73ZM7.198 17.533c.318.311.735.467 1.152.467.417 0 .834-.156 1.152-.467a1.576 1.576 0 0 0 0-2.256L5.133 11a1.642 1.642 0 0 0-1.152-.467c-.416 0-.833.156-1.152.467a1.57 1.57 0 0 0 0 2.256l4.369 4.277Z"/>
  </g>
</svg>
