<svg width="32" height="32" viewBox="0 0 32 32" fill="none" xmlns="http://www.w3.org/2000/svg">
<g opacity="0.75">
<g clip-path="url(#clip0_184_358)">
<path d="M28 22C27.084 22 26 20.916 26 20V10C26 4.4865 21.5135 0 16 0C10.4865 0 6 4.4865 6 10V20C6 20.8965 4.8965 22 4 22C2.8945 22 2 22.8945 2 24C2 25.1055 2.8945 26 4 26H28C29.1055 26 30 25.1055 30 24C30 22.8945 29.1055 22 28 22Z" fill="#E3B04B"/>
<path d="M16 32C18.209 32 20 30.209 20 28H12C12 30.209 13.791 32 16 32Z" fill="#E3B04B"/>
<path d="M24 -0.333252C27.866 -0.333252 31 2.80075 31 6.66675C31 10.5327 27.866 13.6667 24 13.6667C20.134 13.6667 17 10.5327 17 6.66675C17 2.80075 20.134 -0.333252 24 -0.333252Z" fill="#50C878" stroke="#1D1D1B" stroke-width="2"/>
</g>
</g>
<defs>
<clipPath id="clip0_184_358">
<path d="M0 0H32V32H16C7.16344 32 0 24.8366 0 16V0Z" fill="white"/>
</clipPath>
</defs>
</svg>
