<svg xmlns="http://www.w3.org/2000/svg" width="24" height="24" fill="none" viewBox="0 0 24 24">
  <path fill="#fff" d="M21.462 0H8.854c-1.404 0-2.54 1.079-2.54 2.412v6.764l-5.94 5.57a1.196 1.196 0 0 0-.349.615c-.05.233-.025.474.07.694.095.22.256.409.464.541.208.133.452.204.703.204v6c0 .318.133.623.37.848.237.226.558.352.893.352h20.212c.335 0 .656-.126.893-.352.237-.224.37-.53.37-.848V2.41C24 1.08 22.866 0 21.462 0ZM11.27 21.6H3.79v-6.682l3.77-3.538 3.708 3.603V21.6Zm2.625-13.2h-2.526V6h2.526v2.4Zm5.053 9.6h-2.526v-2.4h2.526V18Zm0-4.8h-2.526v-2.4h2.526v2.4Zm0-4.8h-2.526V6h2.526v2.4Z"/>
  <path fill="#fff" d="M6.315 15.6H8.84V18H6.315v-2.4Z"/>
</svg>
