<svg xmlns="http://www.w3.org/2000/svg" width="24" height="24" fill="none" viewBox="0 0 24 24">
  <path fill="#fff" d="M4.958 12H1.042C.466 12 0 12.466 0 13.042v9.916C0 23.534.466 24 1.042 24h3.916C5.534 24 6 23.534 6 22.958v-9.916C6 12.466 5.534 12 4.958 12Zm9-12h-3.916C9.466 0 9 .466 9 1.042v21.916C9 23.534 9.466 24 10.042 24h3.916c.576 0 1.042-.466 1.042-1.042V1.042C15 .466 14.534 0 13.958 0Zm9 8h-3.916C18.466 8 18 8.466 18 9.042v13.916c0 .576.466 1.042 1.042 1.042h3.916c.576 0 1.042-.466 1.042-1.042V9.042C24 8.466 23.534 8 22.958 8Z" class="Vector"/>
</svg>
