<svg xmlns="http://www.w3.org/2000/svg" width="24" height="24" fill="none" viewBox="0 0 24 24">
  <path fill="#fff" fill-rule="evenodd" d="M20 13.333A2.67 2.67 0 0 1 22.667 16v1.333H24V22c0 1.103-.897 2-2 2h-4c-1.103 0-2-.897-2-2v-4.667h1.333V16A2.67 2.67 0 0 1 20 13.333ZM10 0c1.133 0 2.24.32 3.187.92a5.64 5.64 0 0 1 1.053.827 5.845 5.845 0 0 1 1.35 2.122c.142.38.26.768.323 1.176l.028.183.046.252-.007.004v.003l-.659.405c-.558.361-1.193.77-2.413.773l-.015.002c-.306 0-.576-.027-.816-.071l-.021-.005c-.704-.135-1.163-.428-1.579-.696a7.496 7.496 0 0 0-.352-.22c-.349-.2-.724-.342-1.352-.342H8.77c-.722.002-1.109.199-1.517.454l-.168.105-.124.077a6.103 6.103 0 0 1-.245.152c-.056.034-.119.063-.179.095A3.68 3.68 0 0 1 6 6.448c-.087.03-.181.053-.277.079a3.652 3.652 0 0 1-.348.077l-.042.01v.72c0 .213.014.426.054.626A4.65 4.65 0 0 0 10 12a4.662 4.662 0 0 0 4.64-4.28c.6-.187 1.027-.467 1.36-.68v.293a5.996 5.996 0 0 1-2.655 4.976h.062c1.252.21 2.483.535 3.676.972A3.972 3.972 0 0 0 16 16h-1.333v6c0 .017.005.033.005.052-1.787.47-3.405.615-4.672.615-4.319 0-7.65-1.504-9.685-2.767L0 19.704v-2.455c0-1.75 1.073-3.288 2.733-3.916a20.156 20.156 0 0 1 3.878-1.029h.06C5.244 11.343 4.24 9.797 4.04 8A5.428 5.428 0 0 1 4 7.333V6c0-.707.12-1.373.347-2A6.007 6.007 0 0 1 10 0Zm10 14.667c-.735 0-1.333.598-1.333 1.333v1.333h2.666V16c0-.735-.598-1.333-1.333-1.333Z" clip-rule="evenodd"/>
</svg>
