<svg xmlns="http://www.w3.org/2000/svg" width="24" height="24" fill="none" viewBox="0 0 24 24">
  <path fill="#fff" d="M18 13.5c.663 0 1.2.672 1.2 1.5 0 .77-.463 1.403-1.06 1.49l-.14.01H4.1l3.95 4.94c.433.54.466 1.39.1 1.98l-.1.14c-.432.541-1.113.583-1.584.125l-.113-.124-6-7.5c-.722-.904-.264-2.422.713-2.552l.136-.009h16.799ZM17.535.315l.113.124 6 7.5c.722.904.264 2.422-.713 2.552l-.136.009h-16.8c-.662 0-1.2-.672-1.2-1.5 0-.77.464-1.403 1.06-1.49L6 7.5h13.9l-3.95-4.94c-.433-.54-.466-1.39-.1-1.98l.1-.14c.432-.541 1.113-.583 1.584-.125Z"/>
</svg>
