<svg xmlns="http://www.w3.org/2000/svg" width="17" height="16" fill="none" viewBox="0 0 17 16">
  <path fill="#E3B04B" fill-opacity=".75" d="M5.796.553A.996.996 0 0 1 6.69 0h3.763c.378 0 .725.212.893.553l.225.447h3a.999.999 0 1 1 0 2h-12a.999.999 0 1 1 0-2h3l.225-.447ZM2.571 4h12v10c0 1.103-.896 2-2 2h-8c-1.103 0-2-.897-2-2V4Zm3 2c-.275 0-.5.225-.5.5v7c0 .275.225.5.5.5s.5-.225.5-.5v-7c0-.275-.225-.5-.5-.5Zm3 0c-.275 0-.5.225-.5.5v7c0 .275.225.5.5.5s.5-.225.5-.5v-7c0-.275-.225-.5-.5-.5Zm3 0c-.275 0-.5.225-.5.5v7c0 .275.225.5.5.5s.5-.225.5-.5v-7c0-.275-.225-.5-.5-.5Z"/>
</svg>
